<svg width="22" height="22" viewBox="0 0 22 22" fill="none" xmlns="http://www.w3.org/2000/svg">
<g clip-path="url(#clip0_432_5462)">
<path d="M19.9383 3.44953C18.8382 2.25646 17.3289 1.59937 15.6878 1.59937C14.4612 1.59937 13.3378 1.98717 12.3489 2.75191C11.8499 3.13793 11.3977 3.6102 10.999 4.16142C10.6005 3.61036 10.1482 3.13793 9.64901 2.75191C8.66022 1.98717 7.53685 1.59937 6.31022 1.59937C4.66919 1.59937 3.15965 2.25646 2.05963 3.44953C0.97275 4.62866 0.374023 6.23954 0.374023 7.98562C0.374023 9.78277 1.04376 11.4278 2.48164 13.1629C3.76794 14.7149 5.61665 16.2905 7.7575 18.1148C8.48853 18.7379 9.31714 19.4441 10.1775 20.1964C10.4048 20.3955 10.6965 20.505 10.999 20.505C11.3014 20.505 11.5932 20.3955 11.8202 20.1967C12.6806 19.4443 13.5097 18.7377 14.241 18.1144C16.3816 16.2903 18.2303 14.7149 19.5166 13.1627C20.9545 11.4278 21.624 9.78277 21.624 7.98546C21.624 6.23954 21.0253 4.62866 19.9383 3.44953Z" fill="#EE4D2D"/>
</g>
<defs>
<clipPath id="clip0_432_5462">
<rect width="21.25" height="21.25" fill="white" transform="translate(0.374023 0.437744)"/>
</clipPath>
</defs>
</svg>
