<svg width="22" height="20" viewBox="0 0 22 20" fill="none" xmlns="http://www.w3.org/2000/svg">
<path d="M11.0005 19.5047C10.698 19.5047 10.4063 19.3951 10.179 19.196C9.32055 18.4454 8.49291 17.74 7.7627 17.1177L7.75897 17.1145C5.61811 15.2901 3.76941 13.7146 2.48311 12.1625C1.04523 10.4275 0.375488 8.7824 0.375488 6.98525C0.375488 5.23917 0.974215 3.6283 2.06126 2.44917C3.16128 1.25609 4.67066 0.598999 6.31184 0.598999C7.53848 0.598999 8.66184 0.986801 9.65064 1.75154C10.1497 2.13756 10.602 2.60999 11.0005 3.16105C11.3992 2.60999 11.8513 2.13756 12.3505 1.75154C13.3393 0.986801 14.4627 0.598999 15.6893 0.598999C17.3303 0.598999 18.8399 1.25609 19.9399 2.44917C21.0269 3.6283 21.6255 5.23917 21.6255 6.98525C21.6255 8.7824 20.9559 10.4275 19.518 12.1624C18.2317 13.7146 16.3832 15.2899 14.2427 17.1142C13.5112 17.7374 12.6822 18.4439 11.8218 19.1963C11.5947 19.3951 11.3029 19.5047 11.0005 19.5047ZM6.31184 1.84379C5.02247 1.84379 3.83798 2.35838 2.97629 3.29286C2.10179 4.24145 1.62012 5.55272 1.62012 6.98525C1.62012 8.49674 2.18188 9.84853 3.44143 11.3683C4.65882 12.8373 6.46959 14.3804 8.56619 16.1672L8.57008 16.1704C9.30304 16.7951 10.1339 17.5033 10.9987 18.2594C11.8687 17.5018 12.7009 16.7925 13.4353 16.1669C15.5317 14.3801 17.3423 12.8373 18.5597 11.3683C19.8191 9.84853 20.3809 8.49674 20.3809 6.98525C20.3809 5.55272 19.8992 4.24145 19.0247 3.29286C18.1632 2.35838 16.9785 1.84379 15.6893 1.84379C14.7448 1.84379 13.8776 2.14405 13.1118 2.73613C12.4295 3.264 11.9541 3.93131 11.6754 4.39823C11.5321 4.63833 11.2798 4.78165 11.0005 4.78165C10.7211 4.78165 10.4689 4.63833 10.3256 4.39823C10.047 3.93131 9.57168 3.264 8.88914 2.73613C8.12343 2.14405 7.25622 1.84379 6.31184 1.84379Z" fill="#8A8A8F"/>
</svg>
